# xmcd
#
# Track frame offsets:
#	150
#	13624
#	28740
#	43442
#	58881
#	72957
#	86552
#	99615
#	113498
#	125777
#	140416
#	153504
#	165982
#	180415
#	195211
#	209979
#	225467
#
# Disc length: 3206 seconds
#
# Revision: 1
# Processed by: cddbd v1.5.2PL0 Copyright (c) Steve Scherf et al.
# Submitted via: audiograbber 1.83.01
#
DISCID=ec0c8411
DTITLE=LUAN SANTANA - QUANDO A NOITE CHEGA 2012
DYEAR=2012
DGENRE=Country
TTITLE0=VOCE DE MIM NAO SAI
TTITLE1=COLADINHO
TTITLE2=QUANDO CHEGA A NOITE
TTITLE3=24 HORAS DE VOCE
TTITLE4=INCONDICIONAL
TTITLE5=SERA QUE EH ERRO MEU
TTITLE6=UNICO
TTITLE7=TELEPATIA
TTITLE8=SURREAL
TTITLE9=MOMENTO CERTO
TTITLE10=VIROU STAR
TTITLE11=NEGA
TTITLE12=TE VIVO
TTITLE13=RAIOS E TROVOADAS
TTITLE14=3 DE MAIO
TTITLE15=ESQUECI DE TE ESQUECER
TTITLE16=PROMETE
EXTD=ARTISTA BREGA BRASILEIRO QUE COPIA DISCARADAMENTE O JUSTIN BIEBER.. ARGH
EXTT0=
EXTT1=
EXTT2=
EXTT3=
EXTT4=
EXTT5=
EXTT6=
EXTT7=
EXTT8=
EXTT9=
EXTT10=
EXTT11=
EXTT12=
EXTT13=
EXTT14=
EXTT15=
EXTT16=
PLAYORDER=
